<svg width="400" height="477" viewBox="0 0 400 477" fill="none" xmlns="http://www.w3.org/2000/svg">
<path d="M276.568 116L315.068 50H158.567C135.234 51 84.2675 71.1 67.0676 143.5C60.4009 102.333 69.5676 16.1 159.568 0.5H399.068L331.568 116H276.568Z" fill="#004F96"/>
<path d="M12.0675 157.5C9.90082 125.833 24.5675 52.7 100.567 13.5C93.4008 19.5 76.0674 36 64.0674 54C50.0674 79.3333 33.0674 144.1 77.0674 200.5C76.5674 204.833 78.4674 216.4 90.0674 228C97.0674 241 122.667 269.3 169.067 278.5H219.567L155.067 236.5H244.567C250.234 235.5 266.667 245.9 287.067 295.5V328.5C250.067 329.833 171.867 331.1 155.067 325.5C135.567 322.667 88.8674 307.5 58.0674 269.5C44.0674 255.667 15.2674 213.9 12.0675 157.5Z" fill="#004F96"/>
<path d="M276.568 116L315.068 50H158.567C135.234 51 84.2675 71.1 67.0676 143.5C60.4009 102.333 69.5676 16.1 159.568 0.5H399.068L331.568 116H276.568Z" stroke="#004F96"/>
<path d="M12.0675 157.5C9.90082 125.833 24.5675 52.7 100.567 13.5C93.4008 19.5 76.0674 36 64.0674 54C50.0674 79.3333 33.0674 144.1 77.0674 200.5C76.5674 204.833 78.4674 216.4 90.0674 228C97.0674 241 122.667 269.3 169.067 278.5H219.567L155.067 236.5H244.567C250.234 235.5 266.667 245.9 287.067 295.5V328.5C250.067 329.833 171.867 331.1 155.067 325.5C135.567 322.667 88.8674 307.5 58.0674 269.5C44.0674 255.667 15.2674 213.9 12.0675 157.5Z" stroke="#004F96"/>
<path d="M124.888 358.035L85.9105 425.238H244.351C267.974 424.22 319.573 403.754 336.986 330.034C343.735 371.951 334.455 459.756 243.339 475.64H0.868835L69.2058 358.035H124.888Z" fill="white"/>
<path d="M392.668 315.779C394.861 348.023 380.013 422.489 303.07 462.403C310.326 456.294 327.874 439.493 340.023 421.165C354.197 395.37 371.408 329.423 326.862 271.996C327.368 267.583 325.445 255.806 313.701 243.995C306.614 230.758 280.696 201.942 233.721 192.574H182.595L247.895 235.34H157.285C151.548 236.358 134.911 225.768 114.258 175.265V141.663C151.717 140.306 230.886 139.016 247.895 144.718C267.637 147.603 314.916 163.046 346.098 201.738C360.271 215.824 389.428 258.352 392.668 315.779Z" fill="white"/>
<path d="M124.888 358.035L85.9105 425.238H244.351C267.974 424.22 319.573 403.754 336.986 330.034C343.735 371.951 334.455 459.756 243.339 475.64H0.868835L69.2058 358.035H124.888Z" stroke="white"/>
<path d="M392.668 315.779C394.861 348.023 380.013 422.489 303.07 462.403C310.326 456.294 327.874 439.493 340.023 421.165C354.197 395.37 371.408 329.423 326.862 271.996C327.368 267.583 325.445 255.806 313.701 243.995C306.614 230.758 280.696 201.942 233.721 192.574H182.595L247.895 235.34H157.285C151.548 236.358 134.911 225.768 114.258 175.265V141.663C151.717 140.306 230.886 139.016 247.895 144.718C267.637 147.603 314.916 163.046 346.098 201.738C360.271 215.824 389.428 258.352 392.668 315.779Z" stroke="white"/>
</svg>
