<svg width="400" height="261" viewBox="0 0 400 261" fill="none" xmlns="http://www.w3.org/2000/svg">
<g clip-path="url(#clip0_24_345)">

<ellipse cx="200" cy="167" rx="200" ry="94" fill="#25FA00"/>
<rect y="95" width="400" height="80" fill="#25FA00"/>
<path d="M200 1C255.115 1 304.964 11.5014 340.996 28.4365C377.107 45.4088 399 68.6581 399 94C399 119.342 377.107 142.591 340.996 159.563C304.964 176.499 255.115 187 200 187C144.885 187 95.0362 176.499 59.0039 159.563C22.8927 142.591 1 119.342 1 94C1 68.6581 22.8927 45.4088 59.0039 28.4365C95.0362 11.5014 144.885 1 200 1Z" fill="#25FA00" stroke="#333333" stroke-width="2"/>
</g>
<defs>
<clipPath id="clip0_24_345">
<rect width="400" height="261" fill="none"/>
</clipPath>
</defs>
</svg>
