<svg width="671" height="112" viewBox="0 0 671 112" fill="none" xmlns="http://www.w3.org/2000/svg">
  <path d="M569.281 109.72L30.4307 108.184L132.29 48.3697L656.885 49.8658L569.281 109.72Z" fill="black" stroke="black"/>
  <path d="M569.59 60.4356L31.7733 58.9019L133.434 0.289438L657.022 1.78261L569.59 60.4356Z" fill="black"/>
  <path d="M656.715 1.7816C683.942 15.9919 665.991 46.0904 660.339 49.843L585.189 105.291C584.785 105.617 584.392 105.907 584.016 106.156L585.189 105.291C593.905 98.2508 607.884 73.9657 569.101 60.8889L656.715 1.7816Z" fill="black"/>
  <path d="M28.1097 108.177C-1.83984 105.907 -2.95492 77.9579 13.2531 65.2151L13.0342 64.5822L107.56 14.833C112.337 7.22693 121.161 1.45647 132.912 1.48999L128.798 50.7107L28.1097 108.177Z" fill="black"/>
  <path d="M28.1097 108.177C-10.8314 105.226 -1.02552 58.8615 32.2238 58.9563M28.1097 108.177L32.2238 58.9563M28.1097 108.177L13.0342 64.5822M28.1097 108.177L128.798 50.7107M32.2238 58.9563L132.912 1.48999M32.2238 58.9563L13.0342 64.5822M128.798 50.7107C89.8574 47.7593 99.6632 1.39517 132.912 1.48999M128.798 50.7107L132.912 1.48999L13.0342 64.5822" stroke="black"/>
  <rect x="30.5574" y="63.7067" width="542.14" height="42.0729" transform="rotate(0.163396 30.5574 63.7067)" fill="#404040"/>
  <circle cx="23.5512" cy="85.0571" r="23.8088" transform="rotate(0.163396 23.5512 85.0571)" fill="#D9D9D9" stroke="black"/>
  <line x1="23.0462" y1="86.792" x2="23.1155" y2="62.4833" stroke="black"/>
  <circle cx="572.234" cy="86.6219" r="23.8088" transform="rotate(0.163396 572.234 86.6219)" fill="#D9D9D9" stroke="black"/>
  <line x1="571.733" y1="86.6205" x2="571.798" y2="64.0481" stroke="black"/>
  <rect x="70.1952" y="74.6385" width="22.8396" height="22.8396" rx="4" transform="rotate(0.163396 70.1952 74.6385)" fill="#FB0000"/>
</svg>
