<svg width="396" height="207" viewBox="0 0 396 207" fill="none" xmlns="http://www.w3.org/2000/svg">
<g clip-path="url(#clip0_2_2)">

<rect x="0.5" y="0.5" width="364.7" height="206" fill="#D9D9D9" stroke="black"/>
<rect x="0.5" y="0.5" width="82.1538" height="206" fill="#D9D9D9" stroke="black"/>
<rect x="81.8846" y="0.5" width="283.846" height="161.769" fill="#D9D9D9" stroke="black"/>
<rect x="97.1" y="14.3" width="226.7" height="9.35" fill="#888888" stroke="black"/>
<rect x="97.1" y="31.55" width="226.7" height="9.35" fill="#888888" stroke="black"/>
<rect x="97.1" y="48.8" width="226.7" height="9.35" fill="#888888" stroke="black"/>
<rect x="97.1" y="14.3" width="226.7" height="9.35" fill="#888888" stroke="black"/>
<rect x="97.1" y="31.55" width="226.7" height="9.35" fill="#888888" stroke="black"/>
<rect x="97.1" y="48.8" width="226.7" height="9.35" fill="#888888" stroke="black"/>
<rect x="97.1" y="66.05" width="226.7" height="9.35" fill="#888888" stroke="black"/>
<rect x="97.1" y="83.3" width="226.7" height="9.35" fill="#888888" stroke="black"/>
<rect x="97.1" y="100.55" width="226.7" height="9.35" fill="#888888" stroke="black"/>
<rect x="362.75" y="45.35" width="16.25" height="61.1" fill="#D9D9D9" stroke="black"/>
<rect x="379.5" y="72.45" width="20.7" height="10.35" fill="black"/>
<circle cx="332.925" cy="136.275" r="21.925" fill="#898686" stroke="black"/>
<line x1="331.7" y1="117.3" x2="331.7" y2="141.45" stroke="black"/>
<rect x="18" y="14" width="51" height="51" rx="4" fill="#FF0000"/>
</g>
<defs>
<clipPath id="clip0_2_2">
<rect width="396" height="207" fill="none"/>
</clipPath>
</defs>
</svg>
