<svg width="400" height="203" viewBox="0 0 400 203" fill="none" xmlns="http://www.w3.org/2000/svg">
<g clip-path="url(#clip0_9_56)">

<rect x="0.5" y="26.2576" width="312.182" height="176.273" fill="#D9D9D9" stroke="black"/>
<rect x="0.5" y="26.2576" width="70.2121" height="176.273" fill="#D9D9D9" stroke="black"/>
<rect x="70.197" y="26.2576" width="242.939" height="138.394" fill="#D9D9D9" stroke="black"/>
<rect x="83.2273" y="38.0757" width="194" height="7.86364" fill="#888888" stroke="black"/>
<rect x="83.2273" y="52.8484" width="194" height="7.86364" fill="#888888" stroke="black"/>
<rect x="83.2273" y="67.6212" width="194" height="7.86364" fill="#888888" stroke="black"/>
<rect x="83.2273" y="38.0757" width="194" height="7.86364" fill="#888888" stroke="black"/>
<rect x="83.2273" y="52.8484" width="194" height="7.86364" fill="#888888" stroke="black"/>
<rect x="83.2273" y="67.6212" width="194" height="7.86364" fill="#888888" stroke="black"/>
<rect x="83.2273" y="82.3939" width="194" height="7.86364" fill="#888888" stroke="black"/>
<rect x="83.2273" y="97.1666" width="194" height="7.86364" fill="#888888" stroke="black"/>
<rect x="83.2273" y="111.939" width="194" height="7.86364" fill="#888888" stroke="black"/>
<circle cx="285.114" cy="142.462" r="18.7045" fill="#898686" stroke="black"/>
<line x1="284.136" y1="126.212" x2="284.136" y2="146.894" stroke="black"/>
<rect x="15" y="38" width="44" height="44" rx="4" fill="#FF0000"/>
<rect x="312.621" y="68.6818" width="9.60606" height="64.1515" fill="#D9D9D9" stroke="black"/>
<rect x="321.712" y="5.04547" width="35.3636" height="141.424" fill="#D9D9D9" stroke="black"/>
<rect x="356.561" y="97.4697" width="38.3939" height="30.8182" fill="#D9D9D9" stroke="black"/>
<rect x="315.652" y="0.5" width="49" height="5.06061" fill="#D9D9D9" stroke="black"/>
<rect x="394.439" y="88.3788" width="5.06061" height="50.5152" fill="#D9D9D9" stroke="black"/>
</g>
<defs>
<clipPath id="clip0_9_56">
<rect width="400" height="203" fill="white"/>
</clipPath>
</defs>
</svg>
