<svg width="399" height="164" viewBox="0 0 399 164" fill="none" xmlns="http://www.w3.org/2000/svg">
<g clip-path="url(#clip0_16_205)">
<rect x="0.5" y="0.5" width="292.191" height="163" fill="#D9D9D9" stroke="black"/>
<rect x="0.5" y="0.5" width="65.6667" height="163" fill="#D9D9D9" stroke="black"/>
<rect x="65.7482" y="0.5" width="227.369" height="127.957" fill="#D9D9D9" stroke="black"/>
<rect x="77.9468" y="11.4333" width="181.553" height="7.2" fill="#888888" stroke="black"/>
<rect x="77.9468" y="25.1001" width="181.553" height="7.2" fill="#888888" stroke="black"/>
<rect x="77.9468" y="38.7667" width="181.553" height="7.2" fill="#888888" stroke="black"/>
<rect x="77.9468" y="11.4333" width="181.553" height="7.2" fill="#888888" stroke="black"/>
<rect x="77.9468" y="25.1001" width="181.553" height="7.2" fill="#888888" stroke="black"/>
<rect x="77.9468" y="38.7667" width="181.553" height="7.2" fill="#888888" stroke="black"/>
<rect x="77.9468" y="52.4333" width="181.553" height="7.2" fill="#888888" stroke="black"/>
<rect x="77.9468" y="66.1001" width="181.553" height="7.2" fill="#888888" stroke="black"/>
<rect x="77.9468" y="79.7667" width="181.553" height="7.2" fill="#888888" stroke="black"/>
<rect x="290.926" y="36.0333" width="12.8298" height="48.2" fill="#D9D9D9" stroke="black"/>
<rect x="304.965" y="57.4701" width="87.9433" height="8.41026" fill="black"/>
<path d="M266.915 90.7C276.574 90.7 284.393 98.436 284.393 107.967C284.393 117.497 276.574 125.233 266.915 125.233C257.256 125.233 249.436 117.497 249.436 107.967C249.436 98.4361 257.256 90.7001 266.915 90.7Z" fill="#898686" stroke="black"/>
<line x1="266.032" y1="92.9332" x2="266.032" y2="112.067" stroke="black"/>
<rect x="14" y="11" width="41" height="41" rx="4" fill="#FF0000"/>
<path d="M392.907 6.10681C393.598 6.10681 394.402 6.6865 395.237 8.11658C396.051 9.51156 396.801 11.5638 397.438 14.1429C398.709 19.2935 399.5 26.4354 399.5 34.3422C399.5 42.2486 398.709 49.39 397.438 54.5404C396.801 57.1195 396.051 59.1718 395.237 60.5668C394.402 61.997 393.598 62.5765 392.907 62.5765C392.217 62.5763 391.414 61.9967 390.579 60.5668C389.765 59.1718 389.015 57.1195 388.378 54.5404C387.107 49.39 386.316 42.2486 386.316 34.3422C386.316 26.4354 387.107 19.2935 388.378 14.1429C389.015 11.5638 389.765 9.51156 390.579 8.11658C391.414 6.68683 392.217 6.10704 392.907 6.10681Z" fill="#D9D9D9" stroke="black"/>
<path d="M392.907 60.7736C393.598 60.7736 394.402 61.3532 395.237 62.7833C396.051 64.1783 396.801 66.2306 397.438 68.8097C398.709 73.9602 399.5 81.1022 399.5 89.0089C399.5 96.9153 398.709 104.057 397.438 109.207C396.801 111.786 396.051 113.839 395.237 115.234C394.402 116.664 393.598 117.243 392.907 117.243C392.217 117.243 391.414 116.663 390.579 115.234C389.765 113.839 389.015 111.786 388.378 109.207C387.107 104.057 386.316 96.9154 386.316 89.0089C386.316 81.1022 387.107 73.9602 388.378 68.8097C389.015 66.2306 389.765 64.1783 390.579 62.7833C391.414 61.3536 392.217 60.7738 392.907 60.7736Z" fill="#D9D9D9" stroke="black"/>
<path d="M392.908 56.5684C395.771 56.5684 398.081 58.8602 398.082 61.6748C398.082 64.4896 395.771 66.7822 392.908 66.7822C390.045 66.7822 387.734 64.4897 387.734 61.6748C387.734 58.8601 390.045 56.5684 392.908 56.5684Z" fill="#D9D9D9" stroke="black"/>
</g>
<defs>
<clipPath id="clip0_16_205">
<rect width="399" height="164" fill="white"/>
</clipPath>
</defs>
</svg>
