<svg width="128" height="63" viewBox="0 0 128 63" fill="none" xmlns="http://www.w3.org/2000/svg">

<path d="M20.9176 40.8864V36.0426L33.0625 16.9091H37.2386V23.6136H34.767L27.1108 35.7301V35.9574H44.3693V40.8864H20.9176ZM34.8807 46V39.4091L34.9943 37.2642V16.9091H40.7614V46H34.8807ZM59.8736 46.6392C57.4304 46.6297 55.3281 46.0284 53.5668 44.8352C51.8149 43.642 50.4654 41.9138 49.5185 39.6506C48.581 37.3873 48.117 34.6648 48.1264 31.483C48.1264 28.3106 48.5952 25.607 49.5327 23.3722C50.4796 21.1373 51.8291 19.4375 53.581 18.2727C55.3423 17.0985 57.4399 16.5114 59.8736 16.5114C62.3073 16.5114 64.4001 17.0985 66.152 18.2727C67.9134 19.447 69.2675 21.1515 70.2145 23.3864C71.1615 25.6117 71.6302 28.3106 71.6207 31.483C71.6207 34.6742 71.1473 37.4015 70.2003 39.6648C69.2628 41.928 67.9181 43.6562 66.1662 44.8494C64.4143 46.0426 62.3168 46.6392 59.8736 46.6392ZM59.8736 41.5398C61.5402 41.5398 62.8707 40.7017 63.8651 39.0256C64.8594 37.3494 65.3518 34.8352 65.3423 31.483C65.3423 29.2765 65.1151 27.4394 64.6605 25.9716C64.2154 24.5038 63.581 23.4006 62.7571 22.6619C61.9427 21.9233 60.9815 21.554 59.8736 21.554C58.2164 21.554 56.8906 22.3826 55.8963 24.0398C54.902 25.697 54.4001 28.178 54.3906 31.483C54.3906 33.7178 54.6132 35.5833 55.0582 37.0795C55.5128 38.5663 56.152 39.6837 56.9759 40.4318C57.7997 41.1705 58.7656 41.5398 59.8736 41.5398ZM75.5661 40.8864V36.0426L87.7109 16.9091H91.8871V23.6136H89.4155L81.7592 35.7301V35.9574H99.0178V40.8864H75.5661ZM89.5291 46V39.4091L89.6428 37.2642V16.9091H95.4098V46H89.5291Z" fill="black"/>
</svg>
