<svg width="286" height="400" viewBox="0 0 286 400" fill="none" xmlns="http://www.w3.org/2000/svg">
<g clip-path="url(#clip0_6_33)">

<ellipse cx="143.719" cy="335.338" rx="142.281" ry="25.5639" fill="#D9D9D9"/>
<rect y="27.0677" width="286" height="308.271" fill="#D9D9D9"/>
<ellipse cx="143.719" cy="25.5639" rx="142.281" ry="25.5639" fill="#D9D9D9"/>
<ellipse cx="143" cy="309.774" rx="124.317" ry="25.5639" fill="#898686"/>
<rect x="18.6834" y="79.6992" width="248.633" height="230.075" fill="#898686"/>
<ellipse cx="142.281" cy="66.1654" rx="142.281" ry="25.5639" fill="#D9D9D9"/>
<path d="M142.281 376.44C149.769 376.44 156.525 377.778 161.389 379.921C163.821 380.993 165.759 382.256 167.081 383.633C168.401 385.008 169.088 386.473 169.088 387.97C169.088 389.467 168.401 390.931 167.081 392.306C165.759 393.683 163.822 394.947 161.389 396.019C156.525 398.162 149.769 399.5 142.281 399.5C134.794 399.5 128.038 398.162 123.174 396.019C120.741 394.947 118.804 393.684 117.482 392.306C116.162 390.931 115.475 389.467 115.475 387.97C115.475 386.473 116.162 385.008 117.482 383.633C118.804 382.256 120.742 380.993 123.174 379.921C128.038 377.778 134.794 376.44 142.281 376.44Z" fill="#D9D9D9" stroke="black"/>
<rect x="114.975" y="360.902" width="54.6131" height="27.0677" fill="#D9D9D9"/>
</g>
<defs>
<clipPath id="clip0_6_33">
<rect width="286" height="400" fill="white"/>
</clipPath>
</defs>
</svg>
